<?xml version="1.0" encoding="UTF-8" standalone="no"?>
<svg
   id="a"
   viewBox="0 0 141 141"
   version="1.1"
   sodipodi:docname="thumbnail.svg"
   inkscape:version="1.1.2 (b8e25be833, 2022-02-05)"
   xmlns:inkscape="http://www.inkscape.org/namespaces/inkscape"
   xmlns:sodipodi="http://sodipodi.sourceforge.net/DTD/sodipodi-0.dtd"
   xmlns="http://www.w3.org/2000/svg"
   xmlns:svg="http://www.w3.org/2000/svg">
  <defs
     id="defs13" />
  <sodipodi:namedview
     id="namedview11"
     pagecolor="#ffffff"
     bordercolor="#666666"
     borderopacity="1.0"
     inkscape:pageshadow="2"
     inkscape:pageopacity="0.0"
     inkscape:pagecheckerboard="0"
     showgrid="false"
     inkscape:zoom="5.893617"
     inkscape:cx="70.5"
     inkscape:cy="70.075813"
     inkscape:window-width="1920"
     inkscape:window-height="1017"
     inkscape:window-x="-8"
     inkscape:window-y="-8"
     inkscape:window-maximized="1"
     inkscape:current-layer="a" />
  <path
     sodipodi:type="spiral"
     style="fill:none;fill-rule:evenodd;stroke:#000000"
     id="path118"
     sodipodi:cx="89.829918"
     sodipodi:cy="48.036945"
     sodipodi:expansion="1"
     sodipodi:revolution="3"
     sodipodi:radius="50.897938"
     sodipodi:argument="-17.961077"
     sodipodi:t0="0"
     d="m 89.829918,48.036945 c 1.609237,1.980597 -1.875864,3.146376 -3.291882,2.674658 -3.837321,-1.278328 -3.948284,-6.374319 -2.057433,-9.258422 3.38229,-5.158983 10.767233,-5.040391 15.224961,-1.440208 6.541896,5.283414 6.171906,15.222286 0.822986,21.1915 -7.129278,7.956024 -19.699732,7.320639 -27.158042,0.205759 -9.385522,-8.953351 -8.47836,-24.187926 0.411466,-33.124578 10.766771,-10.823484 28.682196,-9.641303 39.091116,1.02869 12.26656,12.574219 10.80753,33.180255 -1.64591,45.057657 C 96.849184,88.084932 73.546334,86.347941 60.20298,72.108861 45.041414,55.929513 47.057098,29.925656 63.083345,15.118126 81.062373,-1.4936848 109.77021,0.80118998 126.04062,18.615715 c 18.06324,19.7775 15.48882,51.191494 -4.11481,68.923814" />
  <path
     style="fill:#000000"
     id="path351"
     d="m 63.459613,72.218813 c -1.44283,2.483983 -3.187884,4.778131 -4.884112,7.091244 -3.011752,4.029368 -5.996779,8.076644 -8.878546,12.200303 -3.446409,5.021205 -7.10883,9.89001 -10.609561,14.87311 -3.063458,4.28728 -5.89439,8.73258 -8.880894,13.07242 -2.00648,2.90921 -4.041029,5.79923 -6.186218,8.60812 -1.25435,1.64142 -2.612144,3.20019 -3.957929,4.76651 -0.669493,0.8057 -1.387869,1.56952 -2.091213,2.34597 -0.888892,0.95569 0.411358,-0.45902 -0.377218,0.45129 -0.04969,0.0574 -0.114475,0.10033 -0.164498,0.15741 -0.04622,0.0527 -0.07506,0.11949 -0.123018,0.17064 -0.310852,0.33154 0.03345,-0.13972 -0.226262,0.23855 -0.07324,0.2052 -0.01606,0.12654 -0.15029,0.25004 0,0 7.704075,-3.32973 7.704075,-3.32973 v 0 c 0.0816,-0.16256 0.02616,-0.0989 0.157374,-0.19846 0.293253,-0.28314 0.484955,-0.66732 0.77883,-0.95481 0.604899,-0.74614 1.223658,-1.48071 1.807796,-2.24353 1.209648,-1.53332 2.447231,-3.04644 3.570383,-4.64561 1.926506,-2.70391 3.703283,-5.50424 5.449434,-8.32734 0.432147,-0.67927 0.855878,-1.36397 1.296442,-2.03781 2.415622,-3.69467 5.000642,-7.27575 7.440067,-10.95444 0.512829,-0.74162 1.025658,-1.48323 1.538487,-2.22485 0.501139,-0.74519 0.994389,-1.49576 1.503418,-2.235592 2.409846,-3.502512 4.91324,-6.94346 7.456385,-10.349668 3.100743,-4.09822 6.140188,-8.241741 9.233724,-12.345219 1.044514,-1.375968 1.796051,-2.385429 2.874699,-3.730071 1.010952,-1.26025 2.093161,-2.452563 3.124804,-3.694062 0.09628,-0.115866 0.18324,-0.23917 0.27486,-0.358756 0,0 -7.681019,3.404341 -7.681019,3.404341 z" />
  <circle
     id="path353"
     style="fill:#000000;stroke:#000000"
     cx="69.22744"
     cy="112.49458"
     r="0.28250903" />
  <circle
     id="path355"
     style="fill:#000000;stroke:#000000"
     cx="69.22744"
     cy="112.49458"
     r="0.28250903" />
  <text
     xml:space="preserve"
     style="font-style:normal;font-weight:normal;font-size:40px;line-height:1.25;font-family:sans-serif;fill:#000000;fill-opacity:1;stroke:none"
     x="54.974731"
     y="137.43683"
     id="text4817"><tspan
       sodipodi:role="line"
       id="tspan4815"
       x="54.974731"
       y="137.43683">SHB</tspan></text>
</svg>
